<svg width="213px" height="180px" viewBox="0 0 213 180" version="1.1" xmlns="http://www.w3.org/2000/svg" xmlns:xlink="http://www.w3.org/1999/xlink">
    <g id="Page-1" stroke="none" stroke-width="1" fill="none" fill-rule="evenodd">
            <circle id="Oval" fill="#FE817F" cx="84" cy="84" r="84"></circle>
            <path d="M44.1720083,162.871344 C57.5320083,162.871344 66.1720083,154.311344 69.6120083,148.311344 L67.2920083,147.111344 C64.1720083,152.631344 56.3320083,160.311344 44.1720083,160.311344 C30.3320083,160.311344 18.0120083,150.311344 18.0120083,132.631344 C18.0120083,117.031344 27.4520083,102.071344 40.4120083,97.9913443 C40.0120083,99.8313443 39.8520083,101.831344 39.8520083,103.831344 C39.8520083,115.031344 46.1720083,119.591344 52.8120083,119.591344 C59.7720083,119.591344 64.3320083,114.551344 64.3320083,108.311344 C64.3320083,101.111344 58.1720083,94.3913443 47.4520083,94.3913443 C46.3320083,94.3913443 45.2120083,94.4713443 44.1720083,94.6313443 C49.1320083,81.1113443 64.7320083,72.1513443 80.3320083,72.1513443 L73.3720083,122.151344 L66.3320083,122.151344 L65.9320083,124.791344 L101.692008,124.791344 L103.532008,111.671344 L100.332008,111.671344 L99.0520083,120.391344 L79.9320083,120.391344 L83.0520083,98.2313443 L99.6920083,98.2313443 L100.252008,94.1513443 L83.6120083,94.1513443 L86.4920083,73.9113443 L104.652008,73.9113443 L103.532008,82.3913443 L106.732008,82.3913443 L108.492008,69.5913443 L80.3320083,69.5913443 C63.1320083,69.5913443 45.9320083,79.9113443 41.1320083,95.1913443 C26.3320083,98.9513443 15.2920083,115.431344 15.2920083,132.631344 C15.2920083,151.911344 29.0520083,162.871344 44.1720083,162.871344 Z M52.8120083,117.111344 C47.4520083,117.111344 42.4920083,113.271344 42.4920083,103.831344 C42.4920083,101.591344 42.7320083,99.3513443 43.2920083,97.2713443 C44.6520083,97.0313443 46.0120083,96.8713443 47.4520083,96.8713443 C56.5720083,96.8713443 61.6920083,102.391344 61.6920083,108.311344 C61.6920083,113.111344 58.1720083,117.111344 52.8120083,117.111344 Z M137.132008,125.591344 C141.612008,125.591344 144.092008,122.631344 147.292008,114.391344 L145.292008,113.671344 C142.812008,119.991344 141.132008,121.831344 139.292008,121.831344 C138.332008,121.831344 137.852008,121.351344 138.572008,118.631344 L144.972008,94.9513443 C146.412008,89.1913443 144.172008,85.9113443 139.772008,85.9113443 C132.172008,85.9113443 126.492008,94.5513443 122.492008,102.471344 L121.852008,102.391344 L123.852008,95.2713443 C125.772008,88.3913443 124.492008,85.9113443 121.612008,85.9113443 C116.812008,85.9113443 112.492008,91.1113443 110.092008,97.9913443 L112.012008,98.7113443 C114.492008,92.5513443 116.892008,90.2313443 118.492008,90.2313443 C119.052008,90.2313443 119.452008,90.7113443 119.132008,92.2313443 L112.092008,124.791344 L117.532008,124.791344 L118.732008,119.351344 C121.692008,105.831344 130.252008,90.7113443 137.212008,90.7113443 C138.812008,90.7113443 139.932008,91.5913443 139.292008,93.9913443 L133.132008,117.671344 C131.932008,122.311344 132.732008,125.591344 137.132008,125.591344 Z M178.252008,125.591344 C182.572008,125.591344 185.132008,122.071344 188.092008,114.391344 L186.092008,113.671344 C183.692008,119.831344 181.852008,121.831344 180.012008,121.831344 C179.212008,121.831344 178.812008,121.431344 179.372008,118.631344 L189.372008,67.9113443 L186.732008,65.5913443 C187.772008,60.3913443 189.612008,55.8313443 192.092008,51.9913443 C197.932008,54.7913443 203.772008,57.0313443 209.612008,57.0313443 C217.372008,57.0313443 227.132008,53.0313443 227.132008,45.1913443 C227.132008,38.6313443 220.572008,35.9113443 214.172008,35.9113443 C205.692008,35.9113443 197.132008,40.6313443 191.132008,48.7913443 L187.932008,47.1113443 C180.732008,43.5113443 173.692008,39.9113443 166.972008,39.9113443 C154.412008,39.9113443 143.452008,52.2313443 143.452008,64.3113443 C143.452008,70.7913443 146.572008,76.2313443 151.612008,79.2713443 L152.892008,77.0313443 C148.652008,74.4713443 146.092008,69.8313443 146.092008,64.3113443 C146.092008,53.5113443 155.852008,42.4713443 166.972008,42.4713443 C173.212008,42.4713443 179.932008,45.9113443 186.812008,49.3513443 L189.692008,50.7913443 C187.052008,55.0313443 185.052008,59.9913443 184.012008,65.5913443 L179.772008,88.2313443 C178.652008,87.4313443 176.972008,86.8713443 174.812008,86.8713443 C162.812008,86.8713443 152.092008,104.231344 152.092008,116.631344 C152.092008,124.071344 155.932008,125.591344 159.212008,125.591344 C165.612008,125.591344 171.132008,119.111344 175.212008,111.671344 L175.772008,111.751344 L174.492008,116.231344 C172.972008,121.591344 173.612008,125.591344 178.252008,125.591344 Z M209.612008,54.4713443 C204.332008,54.4713443 198.892008,52.3913443 193.532008,49.9113443 C198.972008,42.6313443 206.572008,38.4713443 214.172008,38.4713443 C219.292008,38.4713443 224.492008,40.3913443 224.492008,45.1913443 C224.492008,51.2713443 216.252008,54.4713443 209.612008,54.4713443 Z M161.452008,120.311344 C159.052008,120.311344 158.492008,118.631344 158.492008,115.511344 C158.492008,103.111344 167.212008,89.9113443 175.052008,89.9113443 C177.212008,89.9113443 178.972008,90.9513443 178.972008,94.4713443 C178.972008,102.791344 169.212008,120.311344 161.452008,120.311344 Z" id="End" fill="#373B4A" fill-rule="nonzero" transform="translate(121.212008, 99.391344) rotate(-13.000000) translate(-121.212008, -99.391344) "></path>
    </g>
</svg>