<?xml version="1.0" encoding="UTF-8"?>
<svg width="301px" height="169px" viewBox="0 0 301 169" version="1.1" xmlns="http://www.w3.org/2000/svg" xmlns:xlink="http://www.w3.org/1999/xlink">
    <title>Group 22</title>
    <g id="Page-1" stroke="none" stroke-width="1" fill="none" fill-rule="evenodd">
        <g id="Group-22" transform="translate(0.381784, 0.000000)">
            <g id="Group-4-Copy" transform="translate(41.052000, 0.000000)" fill="#FF807E">
                <circle id="Oval" cx="84.4142937" cy="84" r="84"></circle>
            </g>
            <path d="M32.826,138.416 C43.848,138.416 50.976,131.354 53.814,126.404 L51.9,125.414 C49.326,129.968 42.858,136.304 32.826,136.304 C21.408,136.304 11.244,128.054 11.244,113.468 C11.244,100.598 19.032,88.256 29.724,84.89 C29.394,86.408 29.262,88.058 29.262,89.708 C29.262,98.948 34.476,102.71 39.954,102.71 C45.696,102.71 49.458,98.552 49.458,93.404 C49.458,87.464 44.376,81.92 35.532,81.92 C34.608,81.92 33.684,81.986 32.826,82.118 C36.918,70.964 49.788,63.572 62.658,63.572 L56.916,104.822 L51.108,104.822 L50.778,107 L67.674,107 L68.004,104.822 L62.196,104.822 L64.902,85.088 L84.24,85.088 L81.534,104.822 L75.726,104.822 L75.396,107 L92.292,107 L92.622,104.822 L86.814,104.822 L92.556,63.638 L98.364,63.638 L98.694,61.46 L81.798,61.46 L81.468,63.638 L87.276,63.638 L84.768,81.656 L65.43,81.656 L67.938,63.638 L73.746,63.638 L74.076,61.46 L62.658,61.46 C48.468,61.46 34.278,69.974 30.318,82.58 C18.108,85.682 9,99.278 9,113.468 C9,129.374 20.352,138.416 32.826,138.416 Z M39.954,100.664 C35.532,100.664 31.44,97.496 31.44,89.708 C31.44,87.86 31.638,86.012 32.1,84.296 C33.222,84.098 34.344,83.966 35.532,83.966 C43.056,83.966 47.28,88.52 47.28,93.404 C47.28,97.364 44.376,100.664 39.954,100.664 Z M110.178,67.862 C112.488,67.862 113.874,65.486 113.874,63.572 C113.874,61.592 112.62,60.206 110.904,60.206 C108.594,60.206 107.34,62.516 107.34,64.496 C107.34,66.476 108.528,67.862 110.178,67.862 Z M103.71,107.66 C107.406,107.66 109.518,105.218 112.158,98.42 L110.508,97.826 C108.462,103.04 107.01,104.558 105.492,104.558 C104.766,104.558 104.502,104.162 105.03,101.918 L109.65,82.646 C111.036,76.904 109.914,74.924 107.538,74.924 C103.578,74.924 100.014,79.214 98.034,84.89 L99.618,85.484 C101.664,80.402 103.644,78.488 104.964,78.488 C105.426,78.488 105.822,78.884 105.492,80.138 L100.476,101.126 C99.486,104.954 100.212,107.66 103.71,107.66 Z M123.972,124.49 C132.552,124.49 139.35,119.078 139.35,113.006 C139.35,103.238 122.19,104.492 122.19,100.598 C122.19,99.74 123.048,98.618 123.972,97.892 C124.434,97.892 124.83,97.958 125.292,97.958 C132.948,97.958 138.228,90.566 138.228,83.636 C138.228,81.854 137.898,80.138 137.106,78.752 L143.838,78.752 L143.838,76.244 L134.862,76.244 C133.608,75.452 131.958,74.924 129.978,74.924 C122.256,74.924 116.976,81.986 116.976,89.114 C116.976,93.404 118.824,96.242 121.86,97.43 C120.144,98.354 118.164,100.268 118.164,102.578 C118.164,103.964 118.824,105.02 119.946,105.812 C115.062,107.528 111.564,110.894 111.564,115.514 C111.564,121.718 117.834,124.49 123.972,124.49 Z M125.49,96.044 C123.18,96.044 121.728,94.328 121.728,90.434 C121.728,84.89 124.698,76.838 129.846,76.838 C132.09,76.838 133.476,78.422 133.476,82.118 C133.476,87.398 130.638,96.044 125.49,96.044 Z M124.038,121.784 C119.418,121.784 114.534,119.87 114.534,115.184 C114.534,111.29 117.834,108.386 122.256,107 C127.206,108.98 134.862,109.64 134.862,114.92 C134.862,119.408 129.186,121.784 124.038,121.784 Z M164.496,107.66 C168.192,107.66 170.238,105.218 172.878,98.42 L171.228,97.826 C169.182,103.04 167.796,104.558 166.278,104.558 C165.486,104.558 165.09,104.162 165.684,101.918 L170.964,82.382 C172.152,77.63 170.304,74.924 166.674,74.924 C160.404,74.924 155.718,82.052 152.418,88.586 L151.89,88.52 L157.5,60.074 L155.322,58.16 C156.18,53.936 157.83,50.174 160.008,47.006 C164.892,49.316 169.908,51.098 174.99,51.098 C181.722,51.098 189.972,48.062 189.972,41.396 C189.972,35.918 184.56,33.674 179.28,33.674 C172.35,33.674 164.694,37.568 159.348,44.3 C157.368,43.244 155.388,42.122 153.408,41 C146.61,37.238 140.076,33.674 133.542,33.674 C123.18,33.674 113.94,42.98 113.94,53.144 C113.94,54.068 114.072,54.992 114.204,55.85 L116.316,55.586 C116.184,54.728 116.118,53.936 116.118,53.144 C116.118,44.036 124.236,35.786 133.542,35.786 C139.416,35.786 145.884,39.35 152.352,42.914 C154.2,43.97 156.114,45.026 158.094,46.016 C155.718,49.514 153.936,53.606 153.078,58.16 L143.838,107 L148.326,107 L149.316,102.512 C151.758,91.358 158.82,78.884 164.562,78.884 C165.882,78.884 166.806,79.61 166.278,81.59 L161.196,101.126 C160.206,104.954 160.866,107.66 164.496,107.66 Z M174.99,48.986 C170.37,48.986 165.75,47.402 161.328,45.29 C166.146,39.284 172.944,35.786 179.28,35.786 C183.504,35.786 187.794,37.37 187.794,41.396 C187.794,46.61 180.798,48.986 174.99,48.986 Z M181.722,107.66 C185.418,107.66 187.53,105.218 190.17,98.42 L188.52,97.826 C186.474,103.04 185.022,104.558 183.504,104.558 C182.778,104.558 182.58,104.03 183.042,101.72 L189.246,68.588 C199.542,67.796 210.3,56.774 210.3,45.752 C210.3,40.274 207.792,36.248 202.644,36.248 C195.384,36.248 188.85,44.96 186.408,58.16 L184.89,66.212 C182.646,65.552 180.468,64.166 178.686,61.922 L177.036,63.242 C179.214,65.948 181.788,67.532 184.56,68.258 L178.488,101.126 C177.762,105.02 178.224,107.66 181.722,107.66 Z M189.642,66.542 L190.83,60.074 L188.652,58.16 C190.83,46.016 196.44,38.36 202.644,38.36 C206.34,38.36 208.122,41.462 208.122,45.752 C208.122,55.586 198.75,65.486 189.642,66.542 Z M205.746,67.862 C208.056,67.862 209.442,65.486 209.442,63.572 C209.442,61.592 208.188,60.206 206.472,60.206 C204.162,60.206 202.908,62.516 202.908,64.496 C202.908,66.476 204.096,67.862 205.746,67.862 Z M199.278,107.66 C202.974,107.66 205.086,105.218 207.726,98.42 L206.076,97.826 C204.03,103.04 202.578,104.558 201.06,104.558 C200.334,104.558 200.07,104.162 200.598,101.918 L205.218,82.646 C206.604,76.904 205.482,74.924 203.106,74.924 C199.146,74.924 195.582,79.214 193.602,84.89 L195.186,85.484 C197.232,80.402 199.212,78.488 200.532,78.488 C200.994,78.488 201.39,78.884 201.06,80.138 L196.044,101.126 C195.054,104.954 195.78,107.66 199.278,107.66 Z M219.54,124.49 C228.12,124.49 234.918,119.078 234.918,113.006 C234.918,103.238 217.758,104.492 217.758,100.598 C217.758,99.74 218.616,98.618 219.54,97.892 C220.002,97.892 220.398,97.958 220.86,97.958 C228.516,97.958 233.796,90.566 233.796,83.636 C233.796,81.854 233.466,80.138 232.674,78.752 L239.406,78.752 L239.406,76.244 L230.43,76.244 C229.176,75.452 227.526,74.924 225.546,74.924 C217.824,74.924 212.544,81.986 212.544,89.114 C212.544,93.404 214.392,96.242 217.428,97.43 C215.712,98.354 213.732,100.268 213.732,102.578 C213.732,103.964 214.392,105.02 215.514,105.812 C210.63,107.528 207.132,110.894 207.132,115.514 C207.132,121.718 213.402,124.49 219.54,124.49 Z M221.058,96.044 C218.748,96.044 217.296,94.328 217.296,90.434 C217.296,84.89 220.266,76.838 225.414,76.838 C227.658,76.838 229.044,78.422 229.044,82.118 C229.044,87.398 226.206,96.044 221.058,96.044 Z M219.606,121.784 C214.986,121.784 210.102,119.87 210.102,115.184 C210.102,111.29 213.402,108.386 217.824,107 C222.774,108.98 230.43,109.64 230.43,114.92 C230.43,119.408 224.754,121.784 219.606,121.784 Z M260.064,107.66 C263.76,107.66 265.806,105.218 268.446,98.42 L266.796,97.826 C264.75,103.04 263.364,104.558 261.846,104.558 C261.054,104.558 260.658,104.162 261.252,101.918 L266.532,82.382 C267.72,77.63 265.872,74.924 262.242,74.924 C255.972,74.924 251.286,82.052 247.986,88.586 L247.458,88.52 L253.068,60.074 L250.89,58.16 C251.748,53.936 253.398,50.174 255.576,47.006 C260.46,49.316 265.476,51.098 270.558,51.098 C277.29,51.098 285.54,48.062 285.54,41.396 C285.54,35.918 280.128,33.674 274.848,33.674 C267.918,33.674 260.262,37.568 254.916,44.3 C252.936,43.244 250.956,42.122 248.976,41 C242.178,37.238 235.644,33.674 229.11,33.674 C218.748,33.674 209.508,42.98 209.508,53.144 C209.508,54.068 209.64,54.992 209.772,55.85 L211.884,55.586 C211.752,54.728 211.686,53.936 211.686,53.144 C211.686,44.036 219.804,35.786 229.11,35.786 C234.984,35.786 241.452,39.35 247.92,42.914 C249.768,43.97 251.682,45.026 253.662,46.016 C251.286,49.514 249.504,53.606 248.646,58.16 L239.406,107 L243.894,107 L244.884,102.512 C247.326,91.358 254.388,78.884 260.13,78.884 C261.45,78.884 262.374,79.61 261.846,81.59 L256.764,101.126 C255.774,104.954 256.434,107.66 260.064,107.66 Z M270.558,48.986 C265.938,48.986 261.318,47.402 256.896,45.29 C261.714,39.284 268.512,35.786 274.848,35.786 C279.072,35.786 283.362,37.37 283.362,41.396 C283.362,46.61 276.366,48.986 270.558,48.986 Z M278.742,107.66 C283.032,107.66 284.814,105.218 287.718,98.42 L286.068,97.826 C283.758,103.04 282.438,104.558 280.392,104.558 C279.534,104.558 278.874,103.964 279.204,101.918 L283.23,79.61 L291.15,79.61 L291.744,76.574 L283.758,76.574 L285.936,65.024 L280.722,67.466 L279.072,76.574 L274.32,76.574 L273.726,79.61 L278.544,79.61 L274.716,101.126 C273.99,105.02 274.716,107.66 278.742,107.66 Z" id="Highlight" fill="#252A32" fill-rule="nonzero" transform="translate(150.372000, 86.045000) rotate(-13.000000) translate(-150.372000, -86.045000) "></path>
        </g>
    </g>
</svg>