<?xml version="1.0" encoding="UTF-8"?>
<svg width="49px" height="50px" viewBox="0 0 49 50" version="1.1" xmlns="http://www.w3.org/2000/svg" xmlns:xlink="http://www.w3.org/1999/xlink">
    <title>Group 4</title>
    <g id="Page-1" stroke="none" stroke-width="1" fill="none" fill-rule="evenodd">
        <g id="Contact---desktop" transform="translate(-501.000000, -441.000000)" fill="#14171B">
            <g id="Group-17" transform="translate(393.000000, 440.000000)">
                <g id="Group-7" transform="translate(96.000000, 0.000000)">
                    <g id="Group-6" transform="translate(0.000000, 1.000000)">
                        <g id="Group-4" transform="translate(12.000000, 0.000000)">
                            <path d="M36.8817204,34.6368952 C36.8817204,36.2920027 35.5646149,37.6344086 33.9379664,37.6344086 L15.0620336,37.6344086 C13.4369328,37.6344086 12.1182796,36.2920027 12.1182796,34.6368952 L12.1182796,15.3615255 C12.1182796,13.706418 13.4369328,12.3655914 15.0620336,12.3655914 L33.9379664,12.3655914 C35.5646149,12.3655914 36.8817204,13.706418 36.8817204,15.3615255 L36.8817204,34.6368952 Z M0,25 C0,38.80625 10.9683438,50 24.5,50 C38.0316562,50 49,38.80625 49,25 C49,11.1921875 38.0316562,0 24.5,0 C10.9683438,0 0,11.1921875 0,25 Z" id="Fill-204"></path>
                            <path d="M24.5,29.5698925 C26.9728509,29.5698925 28.9784946,27.5242719 28.9784946,24.9992556 C28.9784946,22.4757281 26.9728509,20.4301075 24.5,20.4301075 C22.0271491,20.4301075 20.0215054,22.4757281 20.0215054,24.9992556 C20.0215054,27.5242719 22.0271491,29.5698925 24.5,29.5698925" id="Fill-202"></path>
                            <path d="M30.122684,19.8924731 L33.1031225,19.8924731 C33.4434684,19.8924731 33.7204301,19.6105278 33.7204301,19.2637351 L33.7204301,16.2201358 C33.7204301,15.8733431 33.4434684,15.5913978 33.1031225,15.5913978 L30.122684,15.5913978 C29.782338,15.5913978 29.5053763,15.8733431 29.5053763,16.2201358 L29.5053763,19.2637351 C29.5053763,19.6105278 29.782338,19.8924731 30.122684,19.8924731" id="Fill-203"></path>
                            <path d="M24.7634409,32.4798705 C20.6518741,32.4798705 17.3077794,29.157573 17.3077794,25.0759803 C17.3077794,24.3990184 17.3996922,23.7418774 17.5727947,23.1182796 L15.2795699,23.1182796 L15.2795699,33.7270661 C15.2795699,34.1036643 15.585946,34.4086022 15.9643204,34.4086022 L33.5610295,34.4086022 C33.9409358,34.4086022 34.2473118,34.1036643 34.2473118,33.7270661 L34.2473118,23.1182796 L31.954087,23.1182796 C32.1271895,23.7418774 32.2191023,24.3990184 32.2191023,25.0759803 C32.2191023,29.157573 28.8750076,32.4798705 24.7634409,32.4798705 Z" id="Fill-205"></path>
                        </g>
                    </g>
                </g>
            </g>
        </g>
    </g>
</svg>