<?xml version="1.0" encoding="UTF-8"?>
<svg width="48px" height="48px" viewBox="0 0 48 48" version="1.1" xmlns="http://www.w3.org/2000/svg" xmlns:xlink="http://www.w3.org/1999/xlink">
    <title>Fill 209</title>
    <g id="Page-1" stroke="none" stroke-width="1" fill="none" fill-rule="evenodd">
        <g id="Contact---desktop" transform="translate(-400.000000, -442.000000)" fill="#14171B">
            <g id="Group-17" transform="translate(393.000000, 440.000000)">
                <g id="Group-10" transform="translate(0.000000, 2.000000)">
                    <path d="M42.6129032,35.6129032 L37.6478198,35.6129032 L37.6478198,27.7755596 C37.6478198,25.9068638 37.614869,23.5033916 35.0671747,23.5033916 C32.483534,23.5033916 32.0896224,25.5397716 32.0896224,27.6426209 L32.0896224,35.6129032 L27.1290323,35.6129032 L27.1290323,19.4971011 L31.8889222,19.4971011 L31.8889222,21.7011652 L31.9578193,21.7011652 C32.6198304,20.433715 34.2404096,19.0967742 36.6563009,19.0967742 C41.6842903,19.0967742 42.6129032,22.433839 42.6129032,26.773987 L42.6129032,35.6129032 Z M22.4862872,18.5806452 C20.770779,18.5806452 19.3870968,17.1924916 19.3870968,15.483871 C19.3870968,13.7752504 20.770779,12.3870968 22.4862872,12.3870968 C24.1937413,12.3870968 25.5806452,13.7752504 25.5806452,15.483871 C25.5806452,17.1924916 24.1937413,18.5806452 22.4862872,18.5806452 L22.4862872,18.5806452 Z M24.0322581,35.6129032 L19.3870968,35.6129032 L19.3870968,20.1290323 L24.0322581,20.1290323 L24.0322581,35.6129032 Z M7,24 C7,37.254 17.7445,48 31,48 C44.2555,48 55,37.254 55,24 C55,10.7445 44.2555,0 31,0 C17.7445,0 7,10.7445 7,24 Z" id="Fill-209"></path>
                </g>
            </g>
        </g>
    </g>
</svg>