<svg width="260px" height="168px" viewBox="0 0 260 168" version="1.1" xmlns="http://www.w3.org/2000/svg" xmlns:xlink="http://www.w3.org/1999/xlink">
    <g id="Page-1" stroke="none" stroke-width="1" fill="none" fill-rule="evenodd">
		<circle id="Oval" fill="#F9F9FA" cx="84" cy="84" r="84"></circle>
		<path d="M92.2414614,71.0556444 L87.3614614,116.494644 L80.3214614,116.494644 L79.9214614,119.134644 L100.161461,119.134644 L100.561461,116.494644 L93.5214614,116.494644 L98.8014614,66.4946444 C104.241461,66.2546444 108.801461,64.8946444 113.201461,62.0146444 L111.761461,59.8546444 C107.681461,62.5746444 103.201461,63.8546444 97.7614614,63.9346444 L96.8814614,63.9346444 C85.8414614,63.9346444 76.8014614,59.2146444 68.9614614,54.8146444 L67.9682371,54.2619494 C60.6697412,50.2139638 53.0275484,46.3346444 43.9214614,46.3346444 C25.5214614,46.3346444 11.4414614,61.3746444 11.4414614,77.6946444 C11.4414614,91.7746444 21.7614614,102.014644 35.7614614,102.014644 L35.7614614,99.4546444 C23.2014614,99.4546444 14.1614614,90.3346444 14.1614614,77.6946444 C14.1614614,62.6546444 26.9614614,48.8946444 43.9214614,48.8946444 C52.8814614,48.8946444 60.2414614,52.8946444 67.6814614,57.0546444 C74.3214614,60.7346444 81.2014614,64.5746444 89.8414614,65.9346444 L70.2414614,106.654644 L61.0414614,63.9346444 L45.9214614,63.9346444 L45.5214614,66.5746444 L52.6414614,66.5746444 L43.6014614,116.494644 L36.5614614,116.494644 L36.1614614,119.134644 L55.2014614,119.134644 L55.6014614,116.494644 L48.5614614,116.494644 L56.2414614,71.7746444 L66.4014614,117.534644 L69.2014614,117.534644 L92.2414614,71.0556444 Z M121.041461,71.6946444 C123.841461,71.6946444 125.521461,68.8146444 125.521461,66.4946444 C125.521461,64.0946444 124.001461,62.4146444 121.921461,62.4146444 C119.121461,62.4146444 117.601461,65.2146444 117.601461,67.6146444 C117.601461,70.0146444 119.041461,71.6946444 121.041461,71.6946444 Z M113.201461,119.934644 C117.681461,119.934644 120.241461,116.974644 123.441461,108.734644 L121.441461,108.014644 C118.961461,114.334644 117.201461,116.174644 115.361461,116.174644 C114.481461,116.174644 114.161461,115.694644 114.801461,112.974644 L120.401461,89.6146444 C122.081461,82.6546444 120.721461,80.2546444 117.841461,80.2546444 C113.041461,80.2546444 108.721461,85.4546444 106.321461,92.3346444 L108.241461,93.0546444 C110.721461,86.8946444 113.121461,84.5746444 114.721461,84.5746444 C115.281461,84.5746444 115.761461,85.0546444 115.361461,86.5746444 L109.281461,112.014644 C108.081461,116.654644 108.961461,119.934644 113.201461,119.934644 Z M154.481461,119.934644 C158.801461,119.934644 161.361461,116.414644 164.321461,108.734644 L162.321461,108.014644 C159.921461,114.174644 158.081461,116.174644 156.241461,116.174644 C155.441461,116.174644 155.041461,115.774644 155.601461,112.974644 L165.601461,62.2546444 L162.961461,59.9346444 C164.001461,54.7346444 165.841461,50.1746444 168.321461,46.3346444 C174.161461,49.1346444 180.001461,51.3746444 185.841461,51.3746444 C193.601461,51.3746444 203.361461,47.3746444 203.361461,39.5346444 C203.361461,32.9746444 196.801461,30.2546444 190.401461,30.2546444 C181.921461,30.2546444 173.361461,34.9746444 167.361461,43.1346444 L164.161461,41.4546444 C156.961461,37.8546444 149.921461,34.2546444 143.201461,34.2546444 C130.641461,34.2546444 119.681461,46.5746444 119.681461,58.6546444 C119.681461,65.1346444 122.801461,70.5746444 127.841461,73.6146444 L129.121461,71.3746444 C124.881461,68.8146444 122.321461,64.1746444 122.321461,58.6546444 C122.321461,47.8546444 132.081461,36.8146444 143.201461,36.8146444 C149.441461,36.8146444 156.161461,40.2546444 163.041461,43.6946444 L165.921461,45.1346444 C163.281461,49.3746444 161.281461,54.3346444 160.241461,59.9346444 L156.001461,82.5746444 C154.881461,81.7746444 153.201461,81.2146444 151.041461,81.2146444 C139.041461,81.2146444 128.321461,98.5746444 128.321461,110.974644 C128.321461,118.414644 132.161461,119.934644 135.441461,119.934644 C141.841461,119.934644 147.361461,113.454644 151.441461,106.014644 L152.001461,106.094644 L150.721461,110.574644 C149.201461,115.934644 149.841461,119.934644 154.481461,119.934644 Z M185.841461,48.8146444 C180.561461,48.8146444 175.121461,46.7346444 169.761461,44.2546444 C175.201461,36.9746444 182.801461,32.8146444 190.401461,32.8146444 C195.521461,32.8146444 200.721461,34.7346444 200.721461,39.5346444 C200.721461,45.6146444 192.481461,48.8146444 185.841461,48.8146444 Z M137.681461,114.654644 C135.281461,114.654644 134.721461,112.974644 134.721461,109.854644 C134.721461,97.4546444 143.441461,84.2546444 151.281461,84.2546444 C153.441461,84.2546444 155.201461,85.2946444 155.201461,88.8146444 C155.201461,97.1346444 145.441461,114.654644 137.681461,114.654644 Z M194.481461,119.934644 C198.801461,119.934644 201.361461,116.414644 204.321461,108.734644 L202.321461,108.014644 C199.921461,114.174644 198.081461,116.174644 196.241461,116.174644 C195.441461,116.174644 195.041461,115.774644 195.601461,112.974644 L205.601461,62.2546444 L202.961461,59.9346444 C204.001461,54.7346444 205.841461,50.1746444 208.321461,46.3346444 C214.161461,49.1346444 220.001461,51.3746444 225.841461,51.3746444 C233.601461,51.3746444 243.361461,47.3746444 243.361461,39.5346444 C243.361461,32.9746444 236.801461,30.2546444 230.401461,30.2546444 C221.921461,30.2546444 213.361461,34.9746444 207.361461,43.1346444 L204.161461,41.4546444 C196.961461,37.8546444 189.921461,34.2546444 183.201461,34.2546444 C170.641461,34.2546444 159.681461,46.5746444 159.681461,58.6546444 C159.681461,65.1346444 162.801461,70.5746444 167.841461,73.6146444 L169.121461,71.3746444 C164.881461,68.8146444 162.321461,64.1746444 162.321461,58.6546444 C162.321461,47.8546444 172.081461,36.8146444 183.201461,36.8146444 C189.441461,36.8146444 196.161461,40.2546444 203.041461,43.6946444 L205.921461,45.1346444 C203.281461,49.3746444 201.281461,54.3346444 200.241461,59.9346444 L196.001461,82.5746444 C194.881461,81.7746444 193.201461,81.2146444 191.041461,81.2146444 C179.041461,81.2146444 168.321461,98.5746444 168.321461,110.974644 C168.321461,118.414644 172.161461,119.934644 175.441461,119.934644 C181.841461,119.934644 187.361461,113.454644 191.441461,106.014644 L192.001461,106.094644 L190.721461,110.574644 C189.201461,115.934644 189.841461,119.934644 194.481461,119.934644 Z M225.841461,48.8146444 C220.561461,48.8146444 215.121461,46.7346444 209.761461,44.2546444 C215.201461,36.9746444 222.801461,32.8146444 230.401461,32.8146444 C235.521461,32.8146444 240.721461,34.7346444 240.721461,39.5346444 C240.721461,45.6146444 232.481461,48.8146444 225.841461,48.8146444 Z M177.681461,114.654644 C175.281461,114.654644 174.721461,112.974644 174.721461,109.854644 C174.721461,97.4546444 183.441461,84.2546444 191.281461,84.2546444 C193.441461,84.2546444 195.201461,85.2946444 195.201461,88.8146444 C195.201461,97.1346444 185.441461,114.654644 177.681461,114.654644 Z M214.241461,119.934644 C218.721461,119.934644 221.281461,116.974644 224.481461,108.734644 L222.481461,108.014644 C220.001461,114.334644 218.241461,116.174644 216.401461,116.174644 C215.521461,116.174644 215.281461,115.534644 215.841461,112.734644 L223.361461,72.5746444 C235.841461,71.6146444 248.881461,58.2546444 248.881461,44.8946444 C248.881461,38.2546444 245.841461,33.3746444 239.601461,33.3746444 C230.801461,33.3746444 222.881461,43.9346444 219.921461,59.9346444 L218.081461,69.6946444 C215.361461,68.8946444 212.721461,67.2146444 210.561461,64.4946444 L208.561461,66.0946444 C211.201461,69.3746444 214.321461,71.2946444 217.681461,72.1746444 L210.321461,112.014644 C209.441461,116.734644 210.001461,119.934644 214.241461,119.934644 Z M223.841461,70.0946444 L225.281461,62.2546444 L222.641461,59.9346444 C225.281461,45.2146444 232.081461,35.9346444 239.601461,35.9346444 C244.081461,35.9346444 246.241461,39.6946444 246.241461,44.8946444 C246.241461,56.8146444 234.881461,68.8146444 223.841461,70.0946444 Z M241.441461,119.934644 C249.601461,119.934644 253.921461,113.134644 256.161461,106.094644 L253.841461,105.294644 C250.641461,113.134644 247.361461,116.014644 242.881461,116.014644 C239.121461,116.014644 235.761461,113.054644 235.761461,105.854644 C235.761461,104.734644 235.841461,103.374644 236.001461,102.094644 C249.121461,101.214644 258.001461,95.3746444 258.001461,87.2146444 C258.001461,82.1746444 254.881461,80.0146444 250.081461,80.0146444 C238.721461,80.0146444 229.441461,92.4946444 229.441461,105.614644 C229.441461,114.174644 233.681461,119.934644 241.441461,119.934644 Z M236.481461,99.3746444 C238.241461,91.3746444 242.881461,82.5746444 249.921461,82.5746444 C252.241461,82.5746444 253.521461,83.9346444 253.521461,85.9346444 C253.361461,92.1746444 246.401461,98.4946444 236.481461,99.3746444 Z" id="Middle" fill="#575A67" fill-rule="nonzero" transform="translate(134.721461, 75.094644) rotate(-13.000000) translate(-134.721461, -75.094644) "></path>
    </g>
</svg>