<svg width="238px" height="168px" viewBox="0 0 238 168" version="1.1" xmlns="http://www.w3.org/2000/svg" xmlns:xlink="http://www.w3.org/1999/xlink">

    <g id="Page-1" stroke="none" stroke-width="1" fill="none" fill-rule="evenodd">
        <g id="Group-21">
            <g id="Group-4"></g>
            <circle id="Oval" fill="#FF807E" cx="84.4142937" cy="84" r="84"></circle>
            <path d="M126.549,131.584 C133.809,131.584 144.831,127.162 144.831,117.79 C144.831,111.256 139.617,105.844 128.859,105.844 C120.741,105.844 111.567,108.88 102.129,112.576 C98.103,107.032 94.341,100.234 90.843,92.578 L83.055,75.55 C89.391,74.098 93.945,69.808 93.945,62.614 C93.945,53.572 86.817,51.46 80.349,51.46 L65.037,51.46 L64.707,53.638 L70.515,53.638 L64.773,94.822 L58.965,94.822 L58.635,97 L75.531,97 L75.861,94.822 L70.053,94.822 L72.693,75.946 C74.409,76.078 76.257,76.144 77.577,76.144 L86.949,97 L90.513,97 C93.351,102.742 96.519,108.352 100.083,113.368 L94.869,115.546 C82.989,120.364 71.043,125.248 61.077,125.248 C47.151,125.248 38.373,115.678 38.373,103.402 C38.373,93.898 43.653,85.252 51.771,79.444 L50.517,77.728 C41.871,83.932 36.129,93.238 36.129,103.402 C36.129,116.866 45.831,127.36 61.077,127.36 C71.439,127.36 83.781,122.344 95.661,117.526 C97.509,116.734 99.489,115.942 101.403,115.216 C108.597,124.72 117.177,131.584 126.549,131.584 Z M75.663,73.438 L73.023,73.438 L75.663,54.496 C76.653,54.43 78.105,54.298 79.227,54.298 C86.223,54.298 88.335,57.862 88.335,62.68 C88.335,70.072 83.385,73.438 75.663,73.438 Z M126.549,129.472 C118.497,129.472 110.643,123.862 103.449,114.424 C112.491,110.926 121.731,107.956 128.859,107.956 C138.165,107.956 142.587,112.444 142.587,117.79 C142.587,125.71 133.017,129.472 126.549,129.472 Z M108.201,97.66 C114.933,97.66 118.497,92.05 120.345,86.242 L118.431,85.582 C115.791,92.05 113.085,94.426 109.389,94.426 C106.287,94.426 103.515,91.984 103.515,86.044 C103.515,85.12 103.581,83.998 103.713,82.942 C114.537,82.216 121.863,77.398 121.863,70.666 C121.863,66.508 119.289,64.726 115.329,64.726 C105.957,64.726 98.301,75.022 98.301,85.846 C98.301,92.908 101.799,97.66 108.201,97.66 Z M104.109,80.698 C105.561,74.098 109.389,66.838 115.197,66.838 C117.111,66.838 118.167,67.96 118.167,69.61 C118.035,74.758 112.293,79.972 104.109,80.698 Z M131.895,97.66 C139.221,97.66 142.983,92.644 142.983,88.288 C142.983,80.764 131.829,77.926 131.829,71.788 C131.829,68.818 134.403,67.564 137.835,67.564 C139.815,67.564 141.663,67.96 143.049,68.752 L141.993,74.824 L144.501,74.824 L145.821,67.366 C143.907,66.046 140.937,64.792 137.505,64.792 C132.093,64.792 127.143,67.96 127.143,73.108 C127.143,80.764 138.297,83.602 138.297,89.938 C138.297,92.776 136.053,94.822 131.367,94.822 C129.717,94.822 127.869,94.558 125.955,93.502 L127.143,87.1 L124.635,87.1 L123.183,95.02 C125.295,96.472 128.331,97.66 131.895,97.66 Z M171.033,97.66 C174.729,97.66 176.841,95.218 179.481,88.42 L177.831,87.826 C175.785,93.04 174.333,94.558 172.815,94.558 C172.155,94.558 171.825,94.162 172.287,91.918 L177.963,65.584 L173.475,65.584 L172.485,70.072 C170.043,81.226 162.981,93.7 157.239,93.7 C155.919,93.7 154.995,92.974 155.523,90.994 L160.275,72.646 C161.727,66.97 161.133,64.924 158.295,64.924 C154.335,64.924 150.771,69.214 148.791,74.89 L150.375,75.484 C152.421,70.402 154.401,68.488 155.721,68.488 C156.183,68.488 156.579,68.884 156.249,70.138 L150.837,90.202 C149.583,94.954 151.497,97.66 155.127,97.66 C161.397,97.66 166.083,90.532 169.383,83.998 L169.911,84.064 L168.261,89.938 C167.007,94.36 167.535,97.66 171.033,97.66 Z M187.995,97.66 C191.691,97.66 193.803,95.218 196.443,88.42 L194.793,87.826 C192.747,93.04 191.295,94.558 189.777,94.558 C189.051,94.558 188.853,94.03 189.315,91.72 L195.519,58.588 C205.815,57.796 216.573,46.774 216.573,35.752 C216.573,30.274 214.065,26.248 208.917,26.248 C201.657,26.248 195.123,34.96 192.681,48.16 L191.163,56.212 C188.919,55.552 186.741,54.166 184.959,51.922 L183.309,53.242 C185.487,55.948 188.061,57.532 190.833,58.258 L184.761,91.126 C184.035,95.02 184.497,97.66 187.995,97.66 Z M195.915,56.542 L197.103,50.074 L194.925,48.16 C197.103,36.016 202.713,28.36 208.917,28.36 C212.613,28.36 214.395,31.462 214.395,35.752 C214.395,45.586 205.023,55.486 195.915,56.542 Z M205.881,97.66 C210.171,97.66 211.953,95.218 214.857,88.42 L213.207,87.826 C210.897,93.04 209.577,94.558 207.531,94.558 C206.673,94.558 206.013,93.964 206.343,91.918 L210.369,69.61 L218.289,69.61 L218.883,66.574 L210.897,66.574 L213.075,55.024 L207.861,57.466 L206.211,66.574 L201.459,66.574 L200.865,69.61 L205.683,69.61 L201.855,91.126 C201.129,95.02 201.855,97.66 205.881,97.66 Z M226.605,97.66 C233.931,97.66 237.693,92.644 237.693,88.288 C237.693,80.764 226.539,77.926 226.539,71.788 C226.539,68.818 229.113,67.564 232.545,67.564 C234.525,67.564 236.373,67.96 237.759,68.752 L236.703,74.824 L239.211,74.824 L240.531,67.366 C238.617,66.046 235.647,64.792 232.215,64.792 C226.803,64.792 221.853,67.96 221.853,73.108 C221.853,80.764 233.007,83.602 233.007,89.938 C233.007,92.776 230.763,94.822 226.077,94.822 C224.427,94.822 222.579,94.558 220.665,93.502 L221.853,87.1 L219.345,87.1 L217.893,95.02 C220.005,96.472 223.041,97.66 226.605,97.66 Z" id="Results" fill="#252A32" fill-rule="nonzero" transform="translate(138.330000, 78.916000) rotate(-13.000000) translate(-138.330000, -78.916000) "></path>
        </g>
    </g>
</svg>