<?xml version="1.0" encoding="UTF-8"?>
<svg width="208px" height="80px" viewBox="0 0 208 80" version="1.1" xmlns="http://www.w3.org/2000/svg" xmlns:xlink="http://www.w3.org/1999/xlink">
        <g id="logo" transform="translate(-9.942469, -8.170850)" fill="#FF807E" fill-rule="nonzero">
            <path d="M60.8,79.4 C65.2,79.4 71.88,76.72 71.88,71.04 C71.88,67.08 68.72,63.8 62.2,63.8 C57.28,63.8 51.72,65.64 46,67.88 C43.56,64.52 41.28,60.4 39.16,55.76 L34.44,45.44 C38.28,44.56 41.04,41.96 41.04,37.6 C41.04,32.12 36.72,30.84 32.8,30.84 L23.52,30.84 L23.32,32.16 L26.84,32.16 L23.36,57.12 L19.84,57.12 L19.64,58.44 L29.88,58.44 L30.08,57.12 L26.56,57.12 L28.16,45.68 C29.2,45.76 30.32,45.8 31.12,45.8 L36.8,58.44 L38.96,58.44 C40.68,61.92 42.6,65.32 44.76,68.36 L41.6,69.68 C34.4,72.6 27.16,75.56 21.12,75.56 C12.68,75.56 7.36,69.76 7.36,62.32 C7.36,56.56 10.56,51.32 15.48,47.8 L14.72,46.76 C9.48,50.52 6,56.16 6,62.32 C6,70.48 11.88,76.84 21.12,76.84 C27.4,76.84 34.88,73.8 42.08,70.88 C43.2,70.4 44.4,69.92 45.56,69.48 C49.92,75.24 55.12,79.4 60.8,79.4 Z M29.96,44.16 L28.36,44.16 L29.96,32.68 C30.56,32.64 31.44,32.56 32.12,32.56 C36.36,32.56 37.64,34.72 37.64,37.64 C37.64,42.12 34.64,44.16 29.96,44.16 Z M60.8,78.12 C55.92,78.12 51.16,74.72 46.8,69 C52.28,66.88 57.88,65.08 62.2,65.08 C67.84,65.08 70.52,67.8 70.52,71.04 C70.52,75.84 64.72,78.12 60.8,78.12 Z M51.24,34.72 C52.64,34.72 53.48,33.28 53.48,32.12 C53.48,30.92 52.72,30.08 51.68,30.08 C50.28,30.08 49.52,31.48 49.52,32.68 C49.52,33.88 50.24,34.72 51.24,34.72 Z M47.32,58.84 C49.56,58.84 50.84,57.36 52.44,53.24 L51.44,52.88 C50.2,56.04 49.32,56.96 48.4,56.96 C47.96,56.96 47.8,56.72 48.12,55.36 L50.92,43.68 C51.76,40.2 51.08,39 49.64,39 C47.24,39 45.08,41.6 43.88,45.04 L44.84,45.4 C46.08,42.32 47.28,41.16 48.08,41.16 C48.36,41.16 48.6,41.4 48.4,42.16 L45.36,54.88 C44.76,57.2 45.2,58.84 47.32,58.84 Z M59.88,58.84 C65.2,58.84 71.96,52.36 71.96,44.24 C71.96,40.36 70.44,39 68.28,39 C64.84,39 61.96,42.4 60.36,45.76 L60.04,45.72 L63.16,30 L61.84,28.84 C62.36,26.28 63.36,24 64.68,22.08 C67.64,23.48 70.68,24.56 73.76,24.56 C77.84,24.56 82.84,22.72 82.84,18.68 C82.84,15.36 79.56,14 76.36,14 C72.16,14 67.52,16.36 64.28,20.44 C63.08,19.8 61.88,19.12 60.68,18.44 C56.56,16.16 52.6,14 48.64,14 C42.36,14 36.76,19.64 36.76,25.8 C36.76,26.36 36.84,26.92 36.92,27.44 L38.2,27.28 C38.12,26.76 38.08,26.28 38.08,25.8 C38.08,20.28 43,15.28 48.64,15.28 C52.2,15.28 56.12,17.44 60.04,19.6 C61.16,20.24 62.32,20.88 63.52,21.48 C62.08,23.6 61,26.08 60.48,28.84 L55.96,52.76 C55.84,53.32 55.8,54.12 55.8,54.56 C55.8,57.04 57.12,58.84 59.88,58.84 Z M73.76,23.28 C70.96,23.28 68.16,22.32 65.48,21.04 C68.4,17.4 72.52,15.28 76.36,15.28 C78.92,15.28 81.52,16.24 81.52,18.68 C81.52,21.84 77.28,23.28 73.76,23.28 Z M60.72,57.16 C59.24,57.16 58.8,56.04 58.8,54.4 C58.8,49.84 63,41.32 67,41.32 C68.24,41.32 68.76,42.16 68.76,44.24 C68.76,50.16 64.36,57.16 60.72,57.16 Z M79.76,58.84 C85.08,58.84 91.84,52.36 91.84,44.24 C91.84,40.36 90.32,39 88.16,39 C84.72,39 81.84,42.4 80.24,45.76 L79.92,45.72 L83.04,30 L81.72,28.84 C82.24,26.28 83.24,24 84.56,22.08 C87.52,23.48 90.56,24.56 93.64,24.56 C97.72,24.56 102.72,22.72 102.72,18.68 C102.72,15.36 99.44,14 96.24,14 C92.04,14 87.4,16.36 84.16,20.44 C82.96,19.8 81.76,19.12 80.56,18.44 C76.44,16.16 72.48,14 68.52,14 C62.24,14 56.64,19.64 56.64,25.8 C56.64,26.36 56.72,26.92 56.8,27.44 L58.08,27.28 C58,26.76 57.96,26.28 57.96,25.8 C57.96,20.28 62.88,15.28 68.52,15.28 C72.08,15.28 76,17.44 79.92,19.6 C81.04,20.24 82.2,20.88 83.4,21.48 C81.96,23.6 80.88,26.08 80.36,28.84 L75.84,52.76 C75.72,53.32 75.68,54.12 75.68,54.56 C75.68,57.04 77,58.84 79.76,58.84 Z M93.64,23.28 C90.84,23.28 88.04,22.32 85.36,21.04 C88.28,17.4 92.4,15.28 96.24,15.28 C98.8,15.28 101.4,16.24 101.4,18.68 C101.4,21.84 97.16,23.28 93.64,23.28 Z M80.6,57.16 C79.12,57.16 78.68,56.04 78.68,54.4 C78.68,49.84 82.88,41.32 86.88,41.32 C88.12,41.32 88.64,42.16 88.64,44.24 C88.64,50.16 84.24,57.16 80.6,57.16 Z M100.72,58.84 C106.12,58.84 110.24,52.28 110.24,46.2 C110.24,42.24 108.52,38.88 104.44,38.88 C98.88,38.88 94.84,45.24 94.84,51.4 C94.84,56.12 97.2,58.84 100.72,58.84 Z M100.76,57.2 C99,57.2 98,55.72 98,52.52 C98,47.64 100.36,40.52 104.36,40.52 C106.12,40.52 107.08,41.88 107.08,44.88 C107.08,49.52 104.8,57.2 100.76,57.2 Z M126.56,58.84 C128.8,58.84 130.04,57.36 131.64,53.24 L130.64,52.88 C129.4,56.04 128.56,56.96 127.64,56.96 C127.16,56.96 126.92,56.72 127.28,55.36 L130.48,43.52 C131.2,40.64 130.08,39 127.88,39 C124.08,39 121.24,43.32 119.24,47.28 L118.92,47.24 L119.92,43.68 C120.88,40.24 120.24,39 118.8,39 C116.4,39 114.24,41.6 113.04,45.04 L114,45.4 C115.24,42.32 116.44,41.16 117.24,41.16 C117.52,41.16 117.72,41.4 117.56,42.16 L114.04,58.44 L116.76,58.44 L117.36,55.72 C118.84,48.96 123.12,41.4 126.6,41.4 C127.4,41.4 127.96,41.84 127.64,43.04 L124.56,54.88 C123.96,57.2 124.36,58.84 126.56,58.84 Z" id="Ribbon" transform="translate(68.820000, 46.700000) rotate(-13.000000) translate(-68.820000, -46.700000) "></path>
            <path d="M98.28,74 C102.08,74 104.48,72.76 106,71.56 L106.8,65.96 L105.16,65.96 L104.52,70.28 C102.68,71.44 100.96,71.84 99.08,71.84 C93.72,71.84 90.48,68.56 90.48,62.12 C90.48,55.6 93.8,47.48 101.96,47.48 C104.08,47.48 106.08,48.04 107.64,49.08 L106.8,53.4 L108.4,53.4 C108.8,51.72 109.72,47.44 109.72,44.92 C109.72,38.04 104.96,32.32 96.52,32.32 C89.04,32.32 82.04,36.92 78.56,42.6 C77.96,42.52 77.32,42.44 76.64,42.44 C68.08,42.44 63,51.12 63,57.96 C63,64.28 67.24,68.8 72.96,68.8 C77,68.8 79.92,66.52 80.96,64.6 L79.84,63.96 C78.96,65.56 76.44,67.52 72.96,67.52 C67.96,67.52 64.36,63.56 64.36,57.96 C64.36,51.68 68.88,43.68 76.64,43.68 C77.08,43.68 77.48,43.72 77.88,43.76 C76.84,45.8 76.28,47.92 76.28,49.96 C76.28,53.64 78.04,56.04 80.92,56.04 C83.8,56.04 85.88,53.48 85.88,50.36 C85.88,47.2 83.68,44.08 79.88,42.92 C83.16,37.76 89.6,33.6 96.52,33.6 C104.16,33.6 108.36,38.76 108.36,44.92 C108.36,45.64 108.28,46.36 108.16,47.08 C106.36,45.88 104.16,45.28 101.72,45.28 C91.48,45.28 86.92,55.24 86.92,62.64 C86.92,70.28 91.76,74 98.28,74 Z M80.92,54.8 C78.84,54.8 77.6,52.84 77.6,49.96 C77.6,48 78.16,45.96 79.2,44.04 C82.6,44.96 84.56,47.68 84.56,50.36 C84.56,52.76 83.08,54.8 80.92,54.8 Z M114.16,73.44 L114.76,70.72 C116.44,63.08 120.04,57.52 122.84,57.52 C123.08,57.52 123.56,57.56 124,57.72 L124.68,54.64 C124.44,54.36 124.04,54.08 123.44,54.08 C121,54.08 118.32,58.8 116.64,62.28 L116.32,62.24 L117.32,58.68 C118.28,55.24 117.64,54 116.2,54 C113.8,54 111.64,56.6 110.44,60.04 L111.4,60.4 C112.64,57.32 113.84,56.16 114.64,56.16 C114.92,56.16 115.12,56.4 114.96,57.16 L111.44,73.44 L114.16,73.44 Z M130.48,73.84 C134.56,73.84 136.72,70.44 137.84,66.92 L136.68,66.52 C135.08,70.44 133.44,71.88 131.2,71.88 C129.32,71.88 127.64,70.4 127.64,66.8 C127.64,66.24 127.68,65.56 127.76,64.92 C134.32,64.48 138.76,61.56 138.76,57.48 C138.76,54.96 137.2,53.88 134.8,53.88 C129.12,53.88 124.48,60.12 124.48,66.68 C124.48,70.96 126.6,73.84 130.48,73.84 Z M128,63.56 C128.88,59.56 131.2,55.16 134.72,55.16 C135.88,55.16 136.52,55.84 136.52,56.84 C136.44,59.96 132.96,63.12 128,63.56 Z M153.44,73.84 C155.6,73.84 156.88,72.08 158.36,68.24 L157.36,67.88 C156.16,70.96 155.24,71.96 154.32,71.96 C154,71.96 153.68,71.88 154,70.36 L157.44,53.2 L154.96,53.2 L154.44,55.64 C153.92,55.08 153,54.72 151.8,54.72 C145.8,54.72 140.36,63.72 140.36,69.64 C140.36,72.96 142.32,73.84 143.92,73.84 C146.88,73.84 149.8,70.76 151.92,66.88 L152.2,66.92 L151.56,69.16 C150.8,71.84 151.12,73.84 153.44,73.84 Z M145.04,71.2 C143.88,71.2 143.56,70.4 143.56,68.96 C143.56,63.24 148.04,56.24 151.92,56.24 C152.96,56.24 153.8,56.76 153.8,58.4 C153.8,62.72 148.92,71.2 145.04,71.2 Z M164.6,73.84 C167.2,73.84 168.28,72.36 170.04,68.24 L169.04,67.88 C167.64,71.04 166.84,71.96 165.6,71.96 C165.08,71.96 164.68,71.6 164.88,70.36 L167.32,56.84 L172.12,56.84 L172.48,55 L167.64,55 L168.96,48 L165.8,49.48 L164.8,55 L161.92,55 L161.56,56.84 L164.48,56.84 L162.16,69.88 C161.72,72.24 162.16,73.84 164.6,73.84 Z M180.24,49.72 C181.64,49.72 182.48,48.28 182.48,47.12 C182.48,45.92 181.72,45.08 180.68,45.08 C179.28,45.08 178.52,46.48 178.52,47.68 C178.52,48.88 179.24,49.72 180.24,49.72 Z M176.32,73.84 C178.56,73.84 179.84,72.36 181.44,68.24 L180.44,67.88 C179.2,71.04 178.32,71.96 177.4,71.96 C176.96,71.96 176.8,71.72 177.12,70.36 L179.92,58.68 C180.76,55.2 180.08,54 178.64,54 C176.24,54 174.08,56.6 172.88,60.04 L173.84,60.4 C175.08,57.32 176.28,56.16 177.08,56.16 C177.36,56.16 177.6,56.4 177.4,57.16 L174.36,69.88 C173.76,72.2 174.2,73.84 176.32,73.84 Z M188.76,73.84 C195.12,73.84 200.52,63.96 200.52,57.8 C200.52,54.96 199.36,54 197.88,54 C196.56,54 195.24,54.76 193.76,56.56 L194.36,57.32 C195.4,56.2 196.12,55.68 196.76,55.68 C197.64,55.68 197.88,56.64 197.88,58.56 C197.88,65.32 194.48,71.64 189.96,71.64 C188.04,71.64 188.08,70.44 188.56,68.4 L190.72,58.68 C191.48,55.24 191.24,54 189.56,54 C187.12,54 184.88,56.6 183.68,60.04 L184.64,60.4 C185.84,57.4 187.08,56.16 187.84,56.16 C188.24,56.16 188.36,56.44 188.2,57.16 L185.84,67.76 C185.16,70.8 185.2,73.84 188.76,73.84 Z M209.12,73.84 C213.2,73.84 215.36,70.44 216.48,66.92 L215.32,66.52 C213.72,70.44 212.08,71.88 209.84,71.88 C207.96,71.88 206.28,70.4 206.28,66.8 C206.28,66.24 206.32,65.56 206.4,64.92 C212.96,64.48 217.4,61.56 217.4,57.48 C217.4,54.96 215.84,53.88 213.44,53.88 C207.76,53.88 203.12,60.12 203.12,66.68 C203.12,70.96 205.24,73.84 209.12,73.84 Z M206.64,63.56 C207.52,59.56 209.84,55.16 213.36,55.16 C214.52,55.16 215.16,55.84 215.16,56.84 C215.08,59.96 211.6,63.12 206.64,63.56 Z" id="Creative" transform="translate(140.200000, 53.160000) rotate(-13.000000) translate(-140.200000, -53.160000) "></path>
        </g>
</svg>