<svg width="218px" height="168px" viewBox="0 0 218 168" version="1.1" xmlns="http://www.w3.org/2000/svg" xmlns:xlink="http://www.w3.org/1999/xlink">
    <g id="Page-1" stroke="none" stroke-width="1" fill="none" fill-rule="evenodd">
                <circle id="Oval" fill="#373B4A" cx="84" cy="84" r="84"></circle>
                <path d="M76.8004896,116.088971 C89.7604896,116.088971 95.6004896,108.328971 95.6004896,99.7689707 C95.6004896,91.6889707 90.4004896,88.2489707 82.2404896,83.4489707 C75.9204896,79.7689707 73.1204896,78.0889707 73.1204896,72.9689707 C73.1204896,66.3289707 77.6804896,63.1289707 85.0404896,63.1289707 C88.1604896,63.1289707 92.4004896,63.6889707 95.5204896,65.6889707 L94.1604896,73.9289707 L97.3604896,73.9289707 C97.9204896,70.9689707 99.2804896,63.1289707 99.2804896,59.4489707 C99.2804896,46.2489707 90.5604896,37.1289707 75.9204896,37.1289707 C63.2004896,37.1289707 51.4404896,44.1689707 45.1204896,53.6889707 C43.6004896,53.3689707 42.0804896,53.1289707 40.4004896,53.1289707 C23.6004896,53.1289707 13.3604896,70.5689707 13.3604896,84.2489707 C13.3604896,96.8089707 21.8404896,105.848971 33.2804896,105.848971 C41.3604896,105.848971 47.2004896,101.288971 49.2804896,97.4489707 L47.0404896,96.1689707 C45.2804896,99.3689707 40.2404896,103.288971 33.2804896,103.288971 C23.2804896,103.288971 16.0804896,95.3689707 16.0804896,84.2489707 C16.0804896,71.6889707 25.2004896,55.5289707 40.4004896,55.5289707 C41.6004896,55.5289707 42.7204896,55.6889707 43.7604896,55.8489707 C41.6004896,59.8489707 40.3204896,64.1689707 40.3204896,68.4889707 C40.3204896,75.2889707 43.3604896,80.3289707 48.9604896,80.3289707 C54.4804896,80.3289707 58.7204896,75.2089707 58.7204896,68.9689707 C58.7204896,62.9689707 54.6404896,56.8889707 47.6004896,54.4089707 C53.5204896,45.9289707 64.2404896,39.6889707 75.9204896,39.6889707 C88.9604896,39.6889707 96.5604896,47.6889707 96.5604896,59.4489707 C96.5604896,60.2489707 96.4804896,61.0489707 96.4004896,61.8489707 C93.2004896,59.9289707 89.5204896,58.9689707 85.0404896,58.9689707 C74.1604896,58.9689707 66.6404896,65.1289707 66.6404896,74.0889707 C66.6404896,82.1689707 72.8004896,85.8489707 78.5604896,89.0489707 C85.1204896,92.7289707 89.0404896,94.8889707 89.0404896,100.888971 C89.0404896,107.848971 83.8404896,111.768971 76.4804896,111.768971 C72.3204896,111.768971 68.4004896,110.568971 64.8804896,108.488971 L66.1604896,99.4489707 L62.8804896,99.4489707 L61.2004896,110.888971 C65.7604896,114.168971 70.3204896,116.088971 76.8004896,116.088971 Z M48.9604896,77.9289707 C44.9604896,77.9289707 42.8804896,73.8489707 42.8804896,68.4889707 C42.8804896,64.3289707 44.0804896,60.2489707 46.3204896,56.4889707 C52.4804896,58.5689707 56.1604896,63.8489707 56.1604896,68.9689707 C56.1604896,73.7689707 53.0404896,77.9289707 48.9604896,77.9289707 Z M108.64049,115.928971 C113.84049,115.928971 116.00049,112.968971 119.52049,104.728971 L117.52049,104.008971 C114.72049,110.328971 113.12049,112.168971 110.64049,112.168971 C109.60049,112.168971 108.80049,111.448971 109.20049,108.968971 L114.08049,81.9289707 L123.68049,81.9289707 L124.40049,78.2489707 L114.72049,78.2489707 L117.36049,64.2489707 L111.04049,67.2089707 L109.04049,78.2489707 L103.28049,78.2489707 L102.56049,81.9289707 L108.40049,81.9289707 L103.76049,108.008971 C102.88049,112.728971 103.76049,115.928971 108.64049,115.928971 Z M150.96049,115.928971 C155.28049,115.928971 157.84049,112.408971 160.80049,104.728971 L158.80049,104.008971 C156.40049,110.168971 154.56049,112.168971 152.72049,112.168971 C152.08049,112.168971 151.44049,112.008971 152.08049,108.968971 L158.96049,74.6489707 L154.00049,74.6489707 L152.96049,79.5289707 C151.92049,78.4089707 150.08049,77.6889707 147.68049,77.6889707 C135.68049,77.6889707 124.80049,95.6889707 124.80049,107.528971 C124.80049,114.168971 128.72049,115.928971 131.92049,115.928971 C137.84049,115.928971 143.68049,109.768971 147.92049,102.008971 L148.48049,102.088971 L147.20049,106.568971 C145.68049,111.928971 146.32049,115.928971 150.96049,115.928971 Z M134.16049,110.648971 C131.84049,110.648971 131.20049,109.048971 131.20049,106.168971 C131.20049,94.7289707 140.16049,80.7289707 147.92049,80.7289707 C150.00049,80.7289707 151.68049,81.7689707 151.68049,85.0489707 C151.68049,93.6889707 141.92049,110.648971 134.16049,110.648971 Z M173.44049,115.128971 L174.64049,109.688971 C178.00049,94.4089707 185.20049,83.2889707 190.80049,83.2889707 C191.28049,83.2889707 192.24049,83.3689707 193.12049,83.6889707 L194.48049,77.5289707 C194.00049,76.9689707 193.20049,76.4089707 192.00049,76.4089707 C187.12049,76.4089707 181.76049,85.8489707 178.40049,92.8089707 L177.76049,92.7289707 L179.76049,85.6089707 C181.68049,78.7289707 180.40049,76.2489707 177.52049,76.2489707 C172.72049,76.2489707 168.40049,81.4489707 166.00049,88.3289707 L167.92049,89.0489707 C170.40049,82.8889707 172.80049,80.5689707 174.40049,80.5689707 C174.96049,80.5689707 175.36049,81.0489707 175.04049,82.5689707 L168.00049,115.128971 L173.44049,115.128971 Z M202.56049,115.928971 C207.76049,115.928971 209.92049,112.968971 213.44049,104.728971 L211.44049,104.008971 C208.64049,110.328971 207.04049,112.168971 204.56049,112.168971 C203.52049,112.168971 202.72049,111.448971 203.12049,108.968971 L208.00049,81.9289707 L217.60049,81.9289707 L218.32049,78.2489707 L208.64049,78.2489707 L211.28049,64.2489707 L204.96049,67.2089707 L202.96049,78.2489707 L197.20049,78.2489707 L196.48049,81.9289707 L202.32049,81.9289707 L197.68049,108.008971 C196.80049,112.728971 197.68049,115.928971 202.56049,115.928971 Z" id="Start" fill="#FE817F" fill-rule="nonzero" transform="translate(115.840490, 76.608971) rotate(-13.000000) translate(-115.840490, -76.608971) "></path>
    </g>
</svg>