<?xml version="1.0" encoding="UTF-8"?>
<svg width="49px" height="49px" viewBox="0 0 49 49" version="1.1" xmlns="http://www.w3.org/2000/svg" xmlns:xlink="http://www.w3.org/1999/xlink">
    <title>Group 8</title>
    <g id="Page-1" stroke="none" stroke-width="1" fill="none" fill-rule="evenodd">
        <g id="Contact---desktop" transform="translate(-596.000000, -440.000000)">
            <g id="Group-17" transform="translate(393.000000, 440.000000)">
                <g id="Group-7" transform="translate(96.000000, 0.000000)">
                    <g id="Group-9" transform="translate(102.000000, 0.000000)">
                        <g id="Group-8" transform="translate(5.000000, 0.000000)">
                            <path d="M26.0585161,26.8056344 L28.9943011,32.5886882 L31.9216559,26.8056344 L36.2315484,26.8056344 L28.9943011,41.0967742 L21.7528387,26.8056344 L26.0585161,26.8056344 Z M22.0752903,7.37634409 L31.9216559,26.8035269 L26.0606237,26.8035269 L22.0752903,18.9382366 L18.0983871,26.8056344 L12.2415699,26.8056344 L22.0752903,7.37634409 Z M0,24.5 C0,38.030125 10.9683438,49 24.5,49 C38.0316562,49 49,38.030125 49,24.5 C49,10.9683438 38.0316562,0 24.5,0 C10.9683438,0 0,10.9683438 0,24.5 Z" id="Fill-204" fill="#14171B"></path>
                            <g id="strava-icon" transform="translate(21.118280, 26.376344)"></g>
                        </g>
                    </g>
                </g>
            </g>
        </g>
    </g>
</svg>